NotoSans-Regular.ufo
<glyph name="micro" format="2">
  <advance width="623"/>
  <unicode hex="00B5"/>
  <outline>
    <contour>
      <point x="538" y="536" type="line"/>
      <point x="450" y="536" type="line"/>
      <point x="450" y="257" type="line" smooth="yes"/>
      <point x="450" y="132"/>
      <point x="412" y="63"/>
      <point x="293" y="63" type="curve" smooth="yes"/>
      <point x="213" y="63"/>
      <point x="173" y="107"/>
      <point x="173" y="190" type="curve" smooth="yes"/>
      <point x="173" y="536" type="line"/>
      <point x="85" y="536" type="line"/>
      <point x="85" y="-240" type="line"/>
      <point x="173" y="-240" type="line"/>
      <point x="173" y="-84" type="line" smooth="yes"/>
      <point x="173" y="-30"/>
      <point x="171" y="11"/>
      <point x="168" y="35" type="curve"/>
      <point x="172" y="35" type="line"/>
      <point x="198" y="8"/>
      <point x="235" y="-10"/>
      <point x="287" y="-10" type="curve" smooth="yes"/>
      <point x="362" y="-10"/>
      <point x="414" y="19"/>
      <point x="448" y="72" type="curve"/>
      <point x="453" y="72" type="line"/>
      <point x="467" y="0" type="line"/>
      <point x="538" y="0" type="line"/>
    </contour>
  </outline>
</glyph>
<glyph name="uni02F1" format="2">
  <advance width="331"/>
  <unicode hex="02F1"/>
  <outline>
    <contour>
      <point x="291" y="-240" type="line"/>
      <point x="291" y="-171" type="line"/>
      <point x="128" y="-108" type="line"/>
      <point x="291" y="-46" type="line"/>
      <point x="291" y="23" type="line"/>
      <point x="40" y="-84" type="line"/>
      <point x="40" y="-133" type="line"/>
    </contour>
  </outline>
</glyph>
<glyph name="Heta" format="2">
  <advance width="443"/>
  <unicode hex="0370"/>
  <anchor x="222" y="0" name="bottom"/>
  <anchor x="222" y="714" name="top"/>
  <outline>
    <contour>
      <point x="398" y="334" type="line"/>
      <point x="398" y="412" type="line"/>
      <point x="187" y="412" type="line"/>
      <point x="187" y="714" type="line"/>
      <point x="97" y="714" type="line"/>
      <point x="97" y="0" type="line"/>
      <point x="187" y="0" type="line"/>
      <point x="187" y="334" type="line"/>
    </contour>
  </outline>
</glyph>
<glyph name="heta" format="2">
  <advance width="391"/>
  <unicode hex="0371"/>
  <anchor x="196" y="0" name="bottom"/>
  <anchor x="196" y="536" name="top"/>
  <outline>
    <contour>
      <point x="173" y="537" type="line"/>
      <point x="85" y="537" type="line"/>
      <point x="85" y="0" type="line"/>
      <point x="173" y="0" type="line"/>
      <point x="173" y="244" type="line"/>
      <point x="352" y="244" type="line"/>
      <point x="352" y="313" type="line"/>
      <point x="173" y="313" type="line"/>
    </contour>
  </outline>
</glyph>
<glyph name="Archaicsampi" format="2">
  <advance width="636"/>
  <unicode hex="0372"/>
  <anchor x="318" y="0" name="bottom"/>
  <anchor x="318" y="714" name="top"/>
  <outline>
    <contour>
      <point x="363" y="0" type="line"/>
      <point x="363" y="636" type="line"/>
      <point x="580" y="636" type="line"/>
      <point x="580" y="714" type="line"/>
      <point x="56" y="714" type="line"/>
      <point x="56" y="636" type="line"/>
      <point x="273" y="636" type="line"/>
      <point x="273" y="0" type="line"/>
    </contour>
    <contour>
      <point x="30" y="714" type="line"/>
      <point x="30" y="412" type="line"/>
      <point x="103" y="412" type="line"/>
      <point x="103" y="714" type="line"/>
    </contour>
    <contour>
      <point x="533" y="714" type="line"/>
      <point x="533" y="412" type="line"/>
      <point x="606" y="412" type="line"/>
      <point x="606" y="714" type="line"/>
    </contour>
  </outline>
</glyph>
<glyph name="archaicsampi" format="2">
  <advance width="528"/>
  <unicode hex="0373"/>
  <anchor x="264" y="0" name="bottom"/>
  <anchor x="264" y="763" name="top"/>
  <outline>
    <contour>
      <point x="309" y="0" type="line"/>
      <point x="309" y="692" type="line"/>
      <point x="473" y="692" type="line"/>
      <point x="473" y="763" type="line"/>
      <point x="54" y="763" type="line"/>
      <point x="54" y="692" type="line"/>
      <point x="220" y="692" type="line"/>
      <point x="220" y="0" type="line"/>
    </contour>
    <contour>
      <point x="429" y="763" type="line"/>
      <point x="429" y="528" type="line"/>
      <point x="505" y="528" type="line"/>
      <point x="505" y="763" type="line"/>
    </contour>
    <contour>
      <point x="22" y="763" type="line"/>
      <point x="22" y="528" type="line"/>
      <point x="98" y="528" type="line"/>
      <point x="98" y="763" type="line"/>
    </contour>
  </outline>
</glyph>
<glyph name="tonos" format="2">
  <advance width="577"/>
  <unicode hex="0384"/>
  <anchor x="292" y="536" name="_top"/>
  <outline>
    <contour>
      <point x="253" y="620" type="curve"/>
      <point x="253" y="606" type="line"/>
      <point x="306" y="606" type="line"/>
      <point x="341" y="662"/>
      <point x="381" y="750"/>
      <point x="392" y="794" type="curve"/>
      <point x="392" y="805" type="line"/>
      <point x="298" y="805" type="line"/>
      <point x="290" y="751"/>
      <point x="271" y="669"/>
    </contour>
  </outline>
</glyph>
<glyph name="dieresistonos" format="2">
  <advance width="577"/>
  <unicode hex="0385"/>
  <anchor x="289" y="536" name="_top"/>
  <outline>
    <contour>
      <point x="395" y="828" type="curve"/>
      <point x="395" y="838" type="line"/>
      <point x="299" y="838" type="line"/>
      <point x="289" y="792"/>
      <point x="269" y="730"/>
      <point x="254" y="690" type="curve"/>
      <point x="254" y="678" type="line"/>
      <point x="296" y="678" type="line"/>
      <point x="334" y="725"/>
      <point x="374" y="786"/>
    </contour>
    <contour>
      <point x="184" y="730" type="curve" smooth="yes"/>
      <point x="158" y="730"/>
      <point x="138" y="716"/>
      <point x="138" y="681" type="curve" smooth="yes"/>
      <point x="138" y="647"/>
      <point x="158" y="631"/>
      <point x="184" y="631" type="curve" smooth="yes"/>
      <point x="209" y="631"/>
      <point x="230" y="647"/>
      <point x="230" y="681" type="curve" smooth="yes"/>
      <point x="230" y="716"/>
      <point x="209" y="730"/>
    </contour>
    <contour>
      <point x="403" y="730" type="curve" smooth="yes"/>
      <point x="376" y="730"/>
      <point x="357" y="716"/>
      <point x="357" y="681" type="curve" smooth="yes"/>
      <point x="357" y="647"/>
      <point x="376" y="631"/>
      <point x="403" y="631" type="curve" smooth="yes"/>
      <point x="427" y="631"/>
      <point x="449" y="647"/>
      <point x="449" y="681" type="curve" smooth="yes"/>
      <point x="449" y="716"/>
      <point x="427" y="730"/>
    </contour>
  </outline>
</glyph>
<glyph name="KaiSymbol" format="2">
  <advance width="614"/>
  <unicode hex="03CF"/>
  <outline>
    <contour>
      <point x="314" y="-240" type="curve" smooth="yes"/>
      <point x="483" y="-240"/>
      <point x="582" y="-161"/>
      <point x="614" y="0" type="curve"/>
      <point x="334" y="406" type="line"/>
      <point x="609" y="714" type="line"/>
      <point x="504" y="714" type="line"/>
      <point x="265" y="449" type="line" smooth="yes"/>
      <point x="240" y="422"/>
      <point x="210" y="384"/>
      <point x="187" y="358" type="curve"/>
      <point x="187" y="714" type="line"/>
      <point x="97" y="714" type="line"/>
      <point x="97" y="0" type="line"/>
      <point x="187" y="0" type="line"/>
      <point x="187" y="278" type="line"/>
      <point x="270" y="347" type="line"/>
      <point x="517" y="-14" type="line"/>
      <point x="489" y="-122"/>
      <point x="414" y="-162"/>
      <point x="300" y="-162" type="curve" smooth="yes"/>
      <point x="219" y="-162"/>
      <point x="153" y="-142"/>
      <point x="99" y="-118" type="curve"/>
      <point x="99" y="-195" type="line"/>
      <point x="133" y="-210"/>
      <point x="217" y="-240"/>
    </contour>
  </outline>
</glyph>
<glyph name="uni03D0" format="2">
  <advance width="590"/>
  <unicode hex="03D0"/>
  <anchor x="295" y="-10" name="bottom"/>
  <anchor x="295" y="765" name="top"/>
  <outline>
    <contour>
      <point x="165" y="556" type="curve"/>
      <point x="205" y="522"/>
      <point x="259" y="502"/>
      <point x="316" y="502" type="curve" smooth="yes"/>
      <point x="400" y="502"/>
      <point x="492" y="543"/>
      <point x="492" y="636" type="curve" smooth="yes"/>
      <point x="492" y="714"/>
      <point x="431" y="765"/>
      <point x="318" y="765" type="curve" smooth="yes"/>
      <point x="162" y="765"/>
      <point x="50" y="618"/>
      <point x="50" y="365" type="curve" smooth="yes"/>
      <point x="50" y="135"/>
      <point x="114" y="-10"/>
      <point x="291" y="-10" type="curve" smooth="yes"/>
      <point x="422" y="-10"/>
      <point x="536" y="68"/>
      <point x="536" y="240" type="curve" smooth="yes"/>
      <point x="536" y="372"/>
      <point x="434" y="452"/>
      <point x="314" y="452" type="curve" smooth="yes"/>
      <point x="233" y="452"/>
      <point x="173" y="420"/>
      <point x="140" y="374" type="curve"/>
      <point x="141" y="446"/>
      <point x="149" y="509"/>
    </contour>
    <contour>
      <point x="291" y="63" type="curve" smooth="yes"/>
      <point x="198" y="63"/>
      <point x="150" y="137"/>
      <point x="141" y="301" type="curve"/>
      <point x="173" y="346"/>
      <point x="229" y="375"/>
      <point x="304" y="375" type="curve" smooth="yes"/>
      <point x="391" y="375"/>
      <point x="445" y="323"/>
      <point x="445" y="234" type="curve" smooth="yes"/>
      <point x="445" y="127"/>
      <point x="392" y="63"/>
    </contour>
    <contour>
      <point x="316" y="693" type="curve" smooth="yes"/>
      <point x="381" y="693"/>
      <point x="409" y="665"/>
      <point x="409" y="631" type="curve" smooth="yes"/>
      <point x="409" y="601"/>
      <point x="379" y="575"/>
      <point x="315" y="575" type="curve" smooth="yes"/>
      <point x="271" y="575"/>
      <point x="220" y="591"/>
      <point x="190" y="615" type="curve"/>
      <point x="221" y="667"/>
      <point x="264" y="693"/>
    </contour>
  </outline>
</glyph>
<glyph name="uni03D2" format="2">
  <advance width="572"/>
  <unicode hex="03D2"/>
  <anchor x="282" y="714" name="top"/>
  <outline>
    <contour>
      <point x="281" y="357" type="curve"/>
      <point x="98" y="714" type="line"/>
      <point x="0" y="714" type="line"/>
      <point x="233" y="273" type="line"/>
      <point x="233" y="0" type="line"/>
      <point x="324" y="0" type="line"/>
      <point x="324" y="265" type="line"/>
      <point x="369" y="387"/>
      <point x="447" y="541"/>
      <point x="477" y="594" type="curve" smooth="yes"/>
      <point x="502" y="638"/>
      <point x="519" y="645"/>
      <point x="538" y="645" type="curve" smooth="yes"/>
      <point x="548" y="645"/>
      <point x="559" y="644"/>
      <point x="567" y="642" type="curve"/>
      <point x="567" y="712" type="line"/>
      <point x="556" y="717"/>
      <point x="542" y="720"/>
      <point x="521" y="720" type="curve" smooth="yes"/>
      <point x="468" y="720"/>
      <point x="438" y="695"/>
      <point x="410" y="644" type="curve" smooth="yes"/>
      <point x="377" y="584"/>
      <point x="323" y="455"/>
    </contour>
  </outline>
</glyph>
<glyph name="uni03D7" format="2">
  <advance width="650"/>
  <unicode hex="03D7"/>
  <outline>
    <contour>
      <point x="523" y="-240" type="curve" smooth="yes"/>
      <point x="603" y="-240"/>
      <point x="640" y="-193"/>
      <point x="640" y="-107" type="curve" smooth="yes"/>
      <point x="640" y="71" type="line"/>
      <point x="630" y="67"/>
      <point x="612" y="63"/>
      <point x="596" y="63" type="curve" smooth="yes"/>
      <point x="543" y="63"/>
      <point x="507" y="99"/>
      <point x="507" y="216" type="curve" smooth="yes"/>
      <point x="507" y="342"/>
      <point x="544" y="462"/>
      <point x="581" y="536" type="curve"/>
      <point x="493" y="536" type="line"/>
      <point x="216" y="186" type="line"/>
      <point x="229" y="228"/>
      <point x="234" y="275"/>
      <point x="234" y="316" type="curve" smooth="yes"/>
      <point x="234" y="474"/>
      <point x="175" y="546"/>
      <point x="71" y="546" type="curve" smooth="yes"/>
      <point x="38" y="546"/>
      <point x="13" y="541"/>
      <point x="-5" y="534" type="curve"/>
      <point x="19" y="465" type="line"/>
      <point x="28" y="469"/>
      <point x="40" y="473"/>
      <point x="58" y="473" type="curve" smooth="yes"/>
      <point x="105" y="473"/>
      <point x="146" y="432"/>
      <point x="146" y="320" type="curve" smooth="yes"/>
      <point x="146" y="194"/>
      <point x="109" y="74"/>
      <point x="73" y="0" type="curve"/>
      <point x="163" y="0" type="line"/>
      <point x="437" y="350" type="line"/>
      <point x="424" y="309"/>
      <point x="419" y="261"/>
      <point x="419" y="220" type="curve" smooth="yes"/>
      <point x="419" y="70"/>
      <point x="470" y="-2"/>
      <point x="561" y="-9" type="curve"/>
      <point x="561" y="-112" type="line" smooth="yes"/>
      <point x="561" y="-148"/>
      <point x="543" y="-164"/>
      <point x="513" y="-164" type="curve" smooth="yes"/>
      <point x="492" y="-164"/>
      <point x="474" y="-159"/>
      <point x="463" y="-155" type="curve"/>
      <point x="463" y="-228" type="line"/>
      <point x="476" y="-233"/>
      <point x="498" y="-240"/>
    </contour>
  </outline>
</glyph>
<glyph name="uni03D8" format="2">
  <advance width="763"/>
  <unicode hex="03D8"/>
  <anchor x="382" y="0" name="bottom"/>
  <anchor x="382" y="714" name="top"/>
  <outline>
    <contour>
      <point x="383" y="724" type="curve" smooth="yes"/>
      <point x="165" y="724"/>
      <point x="61" y="599"/>
      <point x="61" y="427" type="curve" smooth="yes"/>
      <point x="61" y="266"/>
      <point x="150" y="145"/>
      <point x="336" y="129" type="curve"/>
      <point x="336" y="0" type="line"/>
      <point x="426" y="0" type="line"/>
      <point x="426" y="129" type="line"/>
      <point x="606" y="145"/>
      <point x="702" y="264"/>
      <point x="702" y="426" type="curve" smooth="yes"/>
      <point x="702" y="600"/>
      <point x="591" y="724"/>
    </contour>
    <contour>
      <point x="383" y="645" type="curve" smooth="yes"/>
      <point x="538" y="645"/>
      <point x="607" y="557"/>
      <point x="607" y="426" type="curve" smooth="yes"/>
      <point x="607" y="295"/>
      <point x="538" y="205"/>
      <point x="382" y="205" type="curve" smooth="yes"/>
      <point x="227" y="205"/>
      <point x="156" y="295"/>
      <point x="156" y="426" type="curve" smooth="yes"/>
      <point x="156" y="557"/>
      <point x="227" y="645"/>
    </contour>
  </outline>
</glyph>
<glyph name="uni03D9" format="2">
  <advance width="605"/>
  <unicode hex="03D9"/>
  <anchor x="303" y="-240" name="bottom"/>
  <anchor x="303" y="536" name="top"/>
  <outline>
    <contour>
      <point x="304" y="546" type="curve" smooth="yes"/>
      <point x="150" y="546"/>
      <point x="55" y="450"/>
      <point x="55" y="273" type="curve" smooth="yes"/>
      <point x="55" y="113"/>
      <point x="139" y="17"/>
      <point x="259" y="0" type="curve"/>
      <point x="259" y="-240" type="line"/>
      <point x="347" y="-240" type="line"/>
      <point x="347" y="0" type="line"/>
      <point x="473" y="18"/>
      <point x="551" y="113"/>
      <point x="551" y="273" type="curve" smooth="yes"/>
      <point x="551" y="450"/>
      <point x="449" y="546"/>
    </contour>
    <contour>
      <point x="302" y="472" type="curve" smooth="yes"/>
      <point x="411" y="472"/>
      <point x="460" y="400"/>
      <point x="460" y="273" type="curve" smooth="yes"/>
      <point x="460" y="146"/>
      <point x="411" y="70"/>
      <point x="303" y="70" type="curve" smooth="yes"/>
      <point x="194" y="70"/>
      <point x="146" y="146"/>
      <point x="146" y="273" type="curve" smooth="yes"/>
      <point x="146" y="400"/>
      <point x="193" y="472"/>
    </contour>
  </outline>
</glyph>
<glyph name="uni03DA" format="2">
  <advance width="613"/>
  <unicode hex="03DA"/>
  <anchor x="307" y="0" name="bottom"/>
  <anchor x="307" y="714" name="top"/>
  <outline>
    <contour>
      <point x="393" y="724" type="curve" smooth="yes"/>
      <point x="174" y="724"/>
      <point x="61" y="606"/>
      <point x="61" y="435" type="curve" smooth="yes"/>
      <point x="61" y="271"/>
      <point x="154" y="165"/>
      <point x="343" y="150" type="curve"/>
      <point x="343" y="0" type="line"/>
      <point x="433" y="0" type="line"/>
      <point x="433" y="224" type="line"/>
      <point x="402" y="224" type="line" smooth="yes"/>
      <point x="238" y="224"/>
      <point x="156" y="305"/>
      <point x="156" y="434" type="curve" smooth="yes"/>
      <point x="156" y="562"/>
      <point x="235" y="645"/>
      <point x="394" y="645" type="curve" smooth="yes"/>
      <point x="467" y="645"/>
      <point x="518" y="627"/>
      <point x="568" y="604" type="curve"/>
      <point x="601" y="682" type="line"/>
      <point x="542" y="708"/>
      <point x="477" y="724"/>
    </contour>
  </outline>
</glyph>
<glyph name="uni03DC" format="2">
  <advance width="534"/>
  <unicode hex="03DC"/>
  <anchor x="267" y="0" name="bottom"/>
  <anchor x="267" y="714" name="top"/>
  <outline>
    <contour>
      <point x="97" y="0" type="line"/>
      <point x="187" y="0" type="line"/>
      <point x="187" y="303" type="line"/>
      <point x="376" y="303" type="line"/>
      <point x="376" y="175" type="line"/>
      <point x="462" y="175" type="line"/>
      <point x="462" y="382" type="line"/>
      <point x="187" y="382" type="line"/>
      <point x="187" y="635" type="line"/>
      <point x="486" y="635" type="line"/>
      <point x="486" y="714" type="line"/>
      <point x="97" y="714" type="line"/>
    </contour>
  </outline>
</glyph>
<glyph name="uni03DD" format="2">
  <advance width="459"/>
  <unicode hex="03DD"/>
  <anchor x="230" y="-240" name="bottom"/>
  <anchor x="230" y="536" name="top"/>
  <outline>
    <contour>
      <point x="174" y="-240" type="line"/>
      <point x="174" y="181" type="line"/>
      <point x="306" y="181" type="line"/>
      <point x="306" y="36" type="line"/>
      <point x="392" y="36" type="line"/>
      <point x="392" y="253" type="line"/>
      <point x="174" y="253" type="line"/>
      <point x="174" y="463" type="line"/>
      <point x="427" y="463" type="line"/>
      <point x="427" y="536" type="line"/>
      <point x="86" y="536" type="line"/>
      <point x="86" y="-240" type="line"/>
    </contour>
  </outline>
</glyph>
<glyph name="uni03E1" format="2">
  <advance width="521"/>
  <unicode hex="03E1"/>
  <anchor x="261" y="-240" name="bottom"/>
  <anchor x="261" y="765" name="top"/>
  <outline>
    <contour>
      <point x="290" y="-240" type="curve"/>
      <point x="380" y="-240" type="line"/>
      <point x="429" y="-144"/>
      <point x="459" y="-12"/>
      <point x="459" y="118" type="curve" smooth="yes"/>
      <point x="459" y="454"/>
      <point x="254" y="703"/>
      <point x="-75" y="765" type="curve"/>
      <point x="-47" y="683" type="line"/>
      <point x="59" y="658"/>
      <point x="167" y="593"/>
      <point x="247" y="492" type="curve"/>
      <point x="37" y="423" type="line"/>
      <point x="60" y="355" type="line"/>
      <point x="289" y="430" type="line"/>
      <point x="313" y="390"/>
      <point x="333" y="345"/>
      <point x="347" y="297" type="curve"/>
      <point x="105" y="218" type="line"/>
      <point x="127" y="152" type="line"/>
      <point x="362" y="229" type="line"/>
      <point x="367" y="194"/>
      <point x="371" y="158"/>
      <point x="371" y="121" type="curve" smooth="yes"/>
      <point x="371" y="-13"/>
      <point x="340" y="-136"/>
    </contour>
  </outline>
</glyph>
<glyph name="afii10028" format="2">
  <advance width="618"/>
  <unicode hex="041A"/>
  <anchor x="309" y="0" name="bottom"/>
  <anchor x="336" y="714" name="top"/>
  <outline>
    <contour>
      <point x="618" y="0" type="line"/>
      <point x="294" y="367" type="line"/>
      <point x="604" y="714" type="line"/>
      <point x="502" y="714" type="line"/>
      <point x="187" y="368" type="line"/>
      <point x="187" y="714" type="line"/>
      <point x="97" y="714" type="line"/>
      <point x="97" y="0" type="line"/>
      <point x="187" y="0" type="line"/>
      <point x="187" y="362" type="line"/>
      <point x="510" y="0" type="line"/>
    </contour>
  </outline>
</glyph>
<glyph name="afii10079" format="2">
  <advance width="637"/>
  <unicode hex="043D"/>
  <anchor x="319" y="0" name="bottom"/>
  <anchor x="319" y="536" name="top"/>
  <outline>
    <contour>
      <point x="173" y="536" type="line"/>
      <point x="85" y="536" type="line"/>
      <point x="85" y="0" type="line"/>
      <point x="173" y="0" type="line"/>
      <point x="173" y="239" type="line"/>
      <point x="464" y="239" type="line"/>
      <point x="464" y="0" type="line"/>
      <point x="552" y="0" type="line"/>
      <point x="552" y="536" type="line"/>
      <point x="464" y="536" type="line"/>
      <point x="464" y="313" type="line"/>
      <point x="173" y="313" type="line"/>
    </contour>
  </outline>
</glyph>
<glyph name="uni052A" format="2">
  <advance width="1403"/>
  <unicode hex="052A"/>
  <anchor x="696" y="-188" name="bottom"/>
  <anchor x="696" y="714" name="top"/>
  <outline>
    <contour>
      <point x="564" y="401" type="line"/>
      <point x="564" y="329" type="line"/>
      <point x="906" y="329" type="line"/>
      <point x="906" y="401" type="line"/>
    </contour>
    <component base="afii10021"/>
    <component base="afii10028" xOffset="785"/>
  </outline>
</glyph>
<glyph name="uni052E" format="2">
  <advance width="713"/>
  <unicode hex="052E"/>
  <anchor x="360" y="-192" name="bottom"/>
  <anchor x="360" y="714" name="top"/>
  <outline>
    <contour>
      <point x="557" y="0" type="line"/>
      <point x="605" y="0" type="line"/>
      <point x="605" y="-192" type="line"/>
      <point x="692" y="-192" type="line"/>
      <point x="692" y="77" type="line"/>
      <point x="595" y="77" type="line"/>
    </contour>
    <component base="afii10029"/>
  </outline>
</glyph>
<glyph name="uni1D03" format="2">
  <advance width="576"/>
  <unicode hex="1D03"/>
  <anchor x="288" y="0" name="bottom"/>
  <anchor x="288" y="536" name="top"/>
  <outline>
    <contour>
      <point x="566" y="314" type="line"/>
      <point x="10" y="314" type="line"/>
      <point x="10" y="245" type="line"/>
      <point x="566" y="245" type="line"/>
    </contour>
    <component base="uni0299"/>
  </outline>
</glyph>
<glyph name="graveacutegrave" format="2">
  <unicode hex="1DC8"/>
  <anchor x="0" y="536" name="_top"/>
  <anchor x="2" y="735" name="top"/>
  <outline>
    <contour>
      <point x="-73" y="595" type="line"/>
      <point x="66" y="660" type="line"/>
      <point x="184" y="596" type="line"/>
      <point x="218" y="659" type="line"/>
      <point x="73" y="735" type="line"/>
      <point x="-66" y="670" type="line"/>
      <point x="-184" y="734" type="line"/>
      <point x="-218" y="671" type="line"/>
    </contour>
  </outline>
</glyph>
<glyph name="uni1FBD" format="2">
  <advance width="258"/>
  <unicode hex="1FBD"/>
  <anchor x="123" y="536" name="_top"/>
  <outline>
    <contour>
      <point x="71" y="633" type="curve"/>
      <point x="71" y="596" type="line"/>
      <point x="149" y="604"/>
      <point x="181" y="644"/>
      <point x="181" y="715" type="curve" smooth="yes"/>
      <point x="181" y="749"/>
      <point x="162" y="774"/>
      <point x="130" y="774" type="curve" smooth="yes"/>
      <point x="101" y="774"/>
      <point x="78" y="760"/>
      <point x="78" y="726" type="curve" smooth="yes"/>
      <point x="78" y="694"/>
      <point x="101" y="679"/>
      <point x="130" y="679" type="curve" smooth="yes"/>
      <point x="130" y="657"/>
      <point x="116" y="636"/>
    </contour>
  </outline>
</glyph>
<glyph name="uni1FBE" format="2">
  <advance width="577"/>
  <unicode hex="1FBE"/>
  <outline>
    <contour>
      <point x="323" y="-116" type="curve" smooth="yes"/>
      <point x="323" y="-62" type="line"/>
      <point x="248" y="-62" type="line"/>
      <point x="248" y="-125" type="line" smooth="yes"/>
      <point x="248" y="-191"/>
      <point x="279" y="-220"/>
      <point x="327" y="-220" type="curve" smooth="yes"/>
      <point x="354" y="-220"/>
      <point x="377" y="-215"/>
      <point x="388" y="-211" type="curve"/>
      <point x="388" y="-153" type="line"/>
      <point x="380" y="-155"/>
      <point x="367" y="-158"/>
      <point x="355" y="-158" type="curve" smooth="yes"/>
      <point x="332" y="-158"/>
      <point x="323" y="-145"/>
    </contour>
  </outline>
</glyph>
<glyph name="uni1FC1" format="2">
  <advance width="580"/>
  <unicode hex="1FC1"/>
  <outline>
    <contour>
      <point x="118" y="745" type="curve"/>
      <point x="164" y="745" type="line"/>
      <point x="173" y="775"/>
      <point x="187" y="794"/>
      <point x="219" y="794" type="curve" smooth="yes"/>
      <point x="263" y="794"/>
      <point x="315" y="746"/>
      <point x="371" y="746" type="curve" smooth="yes"/>
      <point x="434" y="746"/>
      <point x="467" y="791"/>
      <point x="475" y="860" type="curve"/>
      <point x="430" y="860" type="line"/>
      <point x="420" y="830"/>
      <point x="406" y="811"/>
      <point x="375" y="811" type="curve" smooth="yes"/>
      <point x="333" y="811"/>
      <point x="282" y="859"/>
      <point x="223" y="859" type="curve" smooth="yes"/>
      <point x="160" y="859"/>
      <point x="126" y="815"/>
    </contour>
    <contour>
      <point x="196" y="616" type="curve" smooth="yes"/>
      <point x="221" y="616"/>
      <point x="243" y="632"/>
      <point x="243" y="666" type="curve" smooth="yes"/>
      <point x="243" y="701"/>
      <point x="221" y="715"/>
      <point x="196" y="715" type="curve" smooth="yes"/>
      <point x="170" y="715"/>
      <point x="149" y="701"/>
      <point x="149" y="666" type="curve" smooth="yes"/>
      <point x="149" y="632"/>
      <point x="170" y="616"/>
    </contour>
    <contour>
      <point x="383" y="616" type="curve" smooth="yes"/>
      <point x="408" y="616"/>
      <point x="430" y="632"/>
      <point x="430" y="666" type="curve" smooth="yes"/>
      <point x="430" y="701"/>
      <point x="408" y="715"/>
      <point x="383" y="715" type="curve" smooth="yes"/>
      <point x="358" y="715"/>
      <point x="337" y="701"/>
      <point x="337" y="666" type="curve" smooth="yes"/>
      <point x="337" y="632"/>
      <point x="358" y="616"/>
    </contour>
  </outline>
</glyph>
<glyph name="uni1FCD" format="2">
  <advance width="577"/>
  <unicode hex="1FCD"/>
  <outline>
    <contour>
      <point x="381" y="606" type="curve"/>
      <point x="423" y="606" type="line"/>
      <point x="423" y="618" type="line"/>
      <point x="408" y="658"/>
      <point x="388" y="718"/>
      <point x="378" y="764" type="curve"/>
      <point x="282" y="764" type="line"/>
      <point x="282" y="754" type="line"/>
      <point x="303" y="712"/>
      <point x="343" y="653"/>
    </contour>
    <contour>
      <point x="156" y="633" type="curve"/>
      <point x="156" y="596" type="line"/>
      <point x="234" y="604"/>
      <point x="266" y="644"/>
      <point x="266" y="715" type="curve" smooth="yes"/>
      <point x="266" y="749"/>
      <point x="247" y="774"/>
      <point x="215" y="774" type="curve" smooth="yes"/>
      <point x="186" y="774"/>
      <point x="163" y="760"/>
      <point x="163" y="726" type="curve" smooth="yes"/>
      <point x="163" y="694"/>
      <point x="186" y="679"/>
      <point x="215" y="679" type="curve" smooth="yes"/>
      <point x="215" y="657"/>
      <point x="201" y="636"/>
    </contour>
  </outline>
</glyph>
<glyph name="uni1FCE" format="2">
  <advance width="577"/>
  <unicode hex="1FCE"/>
  <outline>
    <contour>
      <point x="307" y="618" type="curve"/>
      <point x="307" y="606" type="line"/>
      <point x="349" y="606" type="line"/>
      <point x="387" y="653"/>
      <point x="427" y="712"/>
      <point x="448" y="754" type="curve"/>
      <point x="448" y="764" type="line"/>
      <point x="352" y="764" type="line"/>
      <point x="342" y="718"/>
      <point x="322" y="658"/>
    </contour>
    <contour>
      <point x="176" y="633" type="curve"/>
      <point x="176" y="596" type="line"/>
      <point x="254" y="604"/>
      <point x="286" y="644"/>
      <point x="286" y="715" type="curve" smooth="yes"/>
      <point x="286" y="749"/>
      <point x="267" y="774"/>
      <point x="235" y="774" type="curve" smooth="yes"/>
      <point x="206" y="774"/>
      <point x="183" y="760"/>
      <point x="183" y="726" type="curve" smooth="yes"/>
      <point x="183" y="694"/>
      <point x="206" y="679"/>
      <point x="235" y="679" type="curve" smooth="yes"/>
      <point x="235" y="657"/>
      <point x="221" y="636"/>
    </contour>
  </outline>
</glyph>
<glyph name="uni1FCF" format="2">
  <advance width="593"/>
  <unicode hex="1FCF"/>
  <outline>
    <contour>
      <point x="118" y="745" type="curve"/>
      <point x="164" y="745" type="line"/>
      <point x="173" y="775"/>
      <point x="187" y="794"/>
      <point x="219" y="794" type="curve" smooth="yes"/>
      <point x="263" y="794"/>
      <point x="315" y="746"/>
      <point x="371" y="746" type="curve" smooth="yes"/>
      <point x="434" y="746"/>
      <point x="467" y="791"/>
      <point x="475" y="860" type="curve"/>
      <point x="430" y="860" type="line"/>
      <point x="420" y="830"/>
      <point x="406" y="811"/>
      <point x="375" y="811" type="curve" smooth="yes"/>
      <point x="333" y="811"/>
      <point x="282" y="859"/>
      <point x="223" y="859" type="curve" smooth="yes"/>
      <point x="160" y="859"/>
      <point x="126" y="815"/>
    </contour>
    <contour>
      <point x="236" y="619" type="curve"/>
      <point x="236" y="586" type="line"/>
      <point x="317" y="593"/>
      <point x="346" y="626"/>
      <point x="346" y="681" type="curve" smooth="yes"/>
      <point x="346" y="718"/>
      <point x="325" y="733"/>
      <point x="295" y="733" type="curve" smooth="yes"/>
      <point x="261" y="733"/>
      <point x="243" y="717"/>
      <point x="243" y="690" type="curve" smooth="yes"/>
      <point x="243" y="658"/>
      <point x="266" y="648"/>
      <point x="295" y="648" type="curve" smooth="yes"/>
      <point x="295" y="634"/>
      <point x="281" y="621"/>
    </contour>
  </outline>
</glyph>
<glyph name="uni1FDD" format="2">
  <advance width="577"/>
  <unicode hex="1FDD"/>
  <outline>
    <contour>
      <point x="366" y="606" type="curve"/>
      <point x="408" y="606" type="line"/>
      <point x="408" y="618" type="line"/>
      <point x="393" y="658"/>
      <point x="373" y="718"/>
      <point x="363" y="764" type="curve"/>
      <point x="267" y="764" type="line"/>
      <point x="267" y="754" type="line"/>
      <point x="288" y="712"/>
      <point x="328" y="653"/>
    </contour>
    <contour>
      <point x="256" y="596" type="curve"/>
      <point x="256" y="633" type="line"/>
      <point x="211" y="636"/>
      <point x="197" y="657"/>
      <point x="197" y="679" type="curve"/>
      <point x="226" y="679"/>
      <point x="249" y="694"/>
      <point x="249" y="726" type="curve" smooth="yes"/>
      <point x="249" y="760"/>
      <point x="226" y="774"/>
      <point x="197" y="774" type="curve" smooth="yes"/>
      <point x="165" y="774"/>
      <point x="146" y="749"/>
      <point x="146" y="715" type="curve" smooth="yes"/>
      <point x="146" y="644"/>
      <point x="178" y="604"/>
    </contour>
  </outline>
</glyph>
<glyph name="uni1FDE" format="2">
  <advance width="577"/>
  <unicode hex="1FDE"/>
  <outline>
    <contour>
      <point x="307" y="618" type="curve"/>
      <point x="307" y="606" type="line"/>
      <point x="349" y="606" type="line"/>
      <point x="387" y="653"/>
      <point x="427" y="712"/>
      <point x="448" y="754" type="curve"/>
      <point x="448" y="764" type="line"/>
      <point x="352" y="764" type="line"/>
      <point x="342" y="718"/>
      <point x="322" y="658"/>
    </contour>
    <contour>
      <point x="286" y="596" type="curve"/>
      <point x="286" y="633" type="line"/>
      <point x="241" y="636"/>
      <point x="227" y="657"/>
      <point x="227" y="679" type="curve" smooth="yes"/>
      <point x="256" y="679"/>
      <point x="279" y="694"/>
      <point x="279" y="726" type="curve" smooth="yes"/>
      <point x="279" y="760"/>
      <point x="256" y="774"/>
      <point x="227" y="774" type="curve" smooth="yes"/>
      <point x="195" y="774"/>
      <point x="176" y="749"/>
      <point x="176" y="715" type="curve" smooth="yes"/>
      <point x="176" y="644"/>
      <point x="208" y="604"/>
    </contour>
  </outline>
</glyph>
<glyph name="uni1FDF" format="2">
  <advance width="593"/>
  <unicode hex="1FDF"/>
  <outline>
    <contour>
      <point x="118" y="745" type="curve"/>
      <point x="164" y="745" type="line"/>
      <point x="173" y="775"/>
      <point x="187" y="794"/>
      <point x="219" y="794" type="curve" smooth="yes"/>
      <point x="263" y="794"/>
      <point x="315" y="746"/>
      <point x="371" y="746" type="curve" smooth="yes"/>
      <point x="434" y="746"/>
      <point x="467" y="791"/>
      <point x="475" y="860" type="curve"/>
      <point x="430" y="860" type="line"/>
      <point x="420" y="830"/>
      <point x="406" y="811"/>
      <point x="375" y="811" type="curve" smooth="yes"/>
      <point x="333" y="811"/>
      <point x="282" y="859"/>
      <point x="223" y="859" type="curve" smooth="yes"/>
      <point x="160" y="859"/>
      <point x="126" y="815"/>
    </contour>
    <contour>
      <point x="350" y="586" type="curve"/>
      <point x="350" y="619" type="line"/>
      <point x="305" y="621"/>
      <point x="291" y="634"/>
      <point x="291" y="648" type="curve" smooth="yes"/>
      <point x="320" y="648"/>
      <point x="343" y="658"/>
      <point x="343" y="690" type="curve" smooth="yes"/>
      <point x="343" y="717"/>
      <point x="325" y="733"/>
      <point x="291" y="733" type="curve" smooth="yes"/>
      <point x="261" y="733"/>
      <point x="240" y="718"/>
      <point x="240" y="681" type="curve" smooth="yes"/>
      <point x="240" y="626"/>
      <point x="269" y="593"/>
    </contour>
  </outline>
</glyph>
<glyph name="uni1FED" format="2">
  <advance width="577"/>
  <unicode hex="1FED"/>
  <outline>
    <contour>
      <point x="296" y="618" type="curve"/>
      <point x="338" y="618" type="line"/>
      <point x="338" y="630" type="line"/>
      <point x="323" y="670"/>
      <point x="303" y="732"/>
      <point x="293" y="778" type="curve"/>
      <point x="197" y="778" type="line"/>
      <point x="197" y="768" type="line"/>
      <point x="218" y="726"/>
      <point x="258" y="665"/>
    </contour>
    <contour>
      <point x="123" y="661" type="curve" smooth="yes"/>
      <point x="123" y="627"/>
      <point x="143" y="611"/>
      <point x="169" y="611" type="curve" smooth="yes"/>
      <point x="194" y="611"/>
      <point x="215" y="627"/>
      <point x="215" y="661" type="curve" smooth="yes"/>
      <point x="215" y="696"/>
      <point x="194" y="710"/>
      <point x="169" y="710" type="curve" smooth="yes"/>
      <point x="143" y="710"/>
      <point x="123" y="696"/>
    </contour>
    <contour>
      <point x="362" y="661" type="curve" smooth="yes"/>
      <point x="362" y="627"/>
      <point x="381" y="611"/>
      <point x="408" y="611" type="curve" smooth="yes"/>
      <point x="432" y="611"/>
      <point x="454" y="627"/>
      <point x="454" y="661" type="curve" smooth="yes"/>
      <point x="454" y="696"/>
      <point x="432" y="710"/>
      <point x="408" y="710" type="curve" smooth="yes"/>
      <point x="381" y="710"/>
      <point x="362" y="696"/>
    </contour>
  </outline>
</glyph>
<glyph name="uni1FEE" format="2">
  <advance width="577"/>
  <unicode hex="1FEE"/>
  <outline>
    <contour>
      <point x="239" y="630" type="curve"/>
      <point x="239" y="618" type="line"/>
      <point x="281" y="618" type="line"/>
      <point x="319" y="665"/>
      <point x="359" y="726"/>
      <point x="380" y="768" type="curve"/>
      <point x="380" y="778" type="line"/>
      <point x="284" y="778" type="line"/>
      <point x="274" y="732"/>
      <point x="254" y="670"/>
    </contour>
    <contour>
      <point x="169" y="611" type="curve" smooth="yes"/>
      <point x="194" y="611"/>
      <point x="215" y="627"/>
      <point x="215" y="661" type="curve" smooth="yes"/>
      <point x="215" y="696"/>
      <point x="194" y="710"/>
      <point x="169" y="710" type="curve" smooth="yes"/>
      <point x="143" y="710"/>
      <point x="123" y="696"/>
      <point x="123" y="661" type="curve" smooth="yes"/>
      <point x="123" y="627"/>
      <point x="143" y="611"/>
    </contour>
    <contour>
      <point x="408" y="611" type="curve" smooth="yes"/>
      <point x="432" y="611"/>
      <point x="454" y="627"/>
      <point x="454" y="661" type="curve" smooth="yes"/>
      <point x="454" y="696"/>
      <point x="432" y="710"/>
      <point x="408" y="710" type="curve" smooth="yes"/>
      <point x="381" y="710"/>
      <point x="362" y="696"/>
      <point x="362" y="661" type="curve" smooth="yes"/>
      <point x="362" y="627"/>
      <point x="381" y="611"/>
    </contour>
  </outline>
</glyph>
<glyph name="uni1FEF" format="2">
  <advance width="577"/>
  <unicode hex="1FEF"/>
  <anchor x="299" y="536" name="_top"/>
  <outline>
    <contour>
      <point x="285" y="606" type="curve"/>
      <point x="338" y="606" type="line"/>
      <point x="338" y="620" type="line"/>
      <point x="320" y="669"/>
      <point x="301" y="751"/>
      <point x="293" y="805" type="curve"/>
      <point x="199" y="805" type="line"/>
      <point x="199" y="794" type="line"/>
      <point x="210" y="750"/>
      <point x="250" y="662"/>
    </contour>
  </outline>
</glyph>
<glyph name="uni1FFD" format="2">
  <advance width="577"/>
  <unicode hex="1FFD"/>
  <anchor x="278" y="536" name="_top"/>
  <outline>
    <contour>
      <point x="239" y="620" type="curve"/>
      <point x="239" y="606" type="line"/>
      <point x="292" y="606" type="line"/>
      <point x="327" y="662"/>
      <point x="367" y="750"/>
      <point x="378" y="794" type="curve"/>
      <point x="378" y="805" type="line"/>
      <point x="284" y="805" type="line"/>
      <point x="276" y="751"/>
      <point x="257" y="669"/>
    </contour>
  </outline>
</glyph>
<glyph name="uni1FFE" format="2">
  <advance width="258"/>
  <unicode hex="1FFE"/>
  <outline>
    <contour>
      <point x="187" y="596" type="curve"/>
      <point x="187" y="633" type="line"/>
      <point x="142" y="636"/>
      <point x="128" y="657"/>
      <point x="128" y="679" type="curve" smooth="yes"/>
      <point x="157" y="679"/>
      <point x="180" y="694"/>
      <point x="180" y="726" type="curve" smooth="yes"/>
      <point x="180" y="760"/>
      <point x="157" y="774"/>
      <point x="128" y="774" type="curve" smooth="yes"/>
      <point x="96" y="774"/>
      <point x="77" y="749"/>
      <point x="77" y="715" type="curve" smooth="yes"/>
      <point x="77" y="644"/>
      <point x="109" y="604"/>
    </contour>
  </outline>
</glyph>
<glyph name="uni2012" format="2">
  <advance width="572"/>
  <unicode hex="2012"/>
  <outline>
    <contour>
      <point x="40" y="321" type="line"/>
      <point x="532" y="321" type="line"/>
      <point x="532" y="394" type="line"/>
      <point x="40" y="394" type="line"/>
    </contour>
  </outline>
</glyph>
<glyph name="uni214E" format="2">
  <advance width="437"/>
  <unicode hex="214E"/>
  <outline>
    <contour>
      <point x="30" y="0" type="line"/>
      <point x="351" y="0" type="line"/>
      <point x="351" y="536" type="line"/>
      <point x="262" y="536" type="line"/>
      <point x="262" y="315" type="line"/>
      <point x="45" y="315" type="line"/>
      <point x="45" y="243" type="line"/>
      <point x="262" y="243" type="line"/>
      <point x="262" y="72" type="line"/>
      <point x="30" y="72" type="line"/>
    </contour>
  </outline>
</glyph>
<glyph name="uni2C75" format="2">
  <advance width="533"/>
  <unicode hex="2C75"/>
  <anchor x="267" y="0" name="bottom"/>
  <anchor x="267" y="714" name="top"/>
  <outline>
    <contour>
      <point x="97" y="0" type="line"/>
      <point x="187" y="0" type="line"/>
      <point x="187" y="333" type="line"/>
      <point x="493" y="333" type="line"/>
      <point x="493" y="412" type="line"/>
      <point x="187" y="412" type="line"/>
      <point x="187" y="714" type="line"/>
      <point x="97" y="714" type="line"/>
    </contour>
  </outline>
</glyph>
<glyph name="brackhalftopleft" format="2">
  <advance width="333"/>
  <unicode hex="2E22"/>
  <outline>
    <contour>
      <point x="144" y="274" type="line"/>
      <point x="144" y="656" type="line"/>
      <point x="308" y="656" type="line"/>
      <point x="308" y="714" type="line"/>
      <point x="80" y="714" type="line"/>
      <point x="80" y="274" type="line"/>
    </contour>
  </outline>
</glyph>
<glyph name="uni2E44" format="2">
  <advance width="330"/>
  <unicode hex="2E44"/>
  <outline>
    <contour>
      <point x="83" y="494" type="line"/>
      <point x="290" y="718" type="line"/>
      <point x="219" y="760" type="line"/>
      <point x="40" y="524" type="line"/>
    </contour>
    <contour>
      <point x="83" y="-55" type="line"/>
      <point x="290" y="169" type="line"/>
      <point x="219" y="211" type="line"/>
      <point x="40" y="-25" type="line"/>
    </contour>
  </outline>
</glyph>
<glyph name="uni2E4D" format="2">
  <advance width="524"/>
  <unicode hex="2E4D"/>
  <outline>
    <contour>
      <point x="157" y="338" type="line"/>
      <point x="497" y="678" type="line"/>
      <point x="460" y="714" type="line"/>
      <point x="121" y="375" type="line"/>
    </contour>
    <component base="afii10020"/>
  </outline>
</glyph>
<glyph name="uniA69A" format="2">
  <advance width="782"/>
  <unicode hex="A69A"/>
  <outline>
    <contour>
      <point x="353" y="661" type="line"/>
      <point x="353" y="29" type="line"/>
      <point x="428" y="29" type="line"/>
      <point x="428" y="661" type="line"/>
    </contour>
    <component base="uni04E8"/>
  </outline>
</glyph>
<glyph name="uniA71C" format="2">
  <advance width="486"/>
  <unicode hex="A71C"/>
  <outline>
    <contour>
      <point x="243" y="570" type="line"/>
      <point x="416" y="760" type="line"/>
      <point x="281" y="760" type="line"/>
      <point x="281" y="890" type="line"/>
      <point x="205" y="890" type="line"/>
      <point x="205" y="760" type="line"/>
      <point x="70" y="760" type="line"/>
    </contour>
  </outline>
</glyph>
<glyph name="uniA78A" format="2">
  <advance width="447"/>
  <unicode hex="A78A"/>
  <outline>
    <contour>
      <point x="397" y="253" type="line"/>
      <point x="50" y="253" type="line"/>
      <point x="50" y="182" type="line"/>
      <point x="397" y="182" type="line"/>
    </contour>
    <contour>
      <point x="50" y="382" type="line"/>
      <point x="397" y="382" type="line"/>
      <point x="397" y="453" type="line"/>
      <point x="50" y="453" type="line"/>
    </contour>
  </outline>
</glyph>
<glyph name="uniA7B9" format="2">
  <advance width="618"/>
  <unicode hex="A7B9"/>
  <outline>
    <contour>
      <point x="99" y="-38" type="line"/>
      <point x="579" y="521" type="line"/>
      <point x="526" y="566" type="line"/>
      <point x="46" y="6" type="line"/>
    </contour>
    <component base="u"/>
  </outline>
</glyph>
<glyph name="uniA7C7" format="2">
  <advance width="730"/>
  <unicode hex="A7C7"/>
  <outline>
    <contour>
      <point x="137" y="333" type="line"/>
      <point x="612" y="333" type="line"/>
      <point x="612" y="402" type="line"/>
      <point x="137" y="402" type="line"/>
    </contour>
    <component base="D"/>
  </outline>
</glyph>
<glyph name="uniA7CA" format="2">
  <advance width="479"/>
  <unicode hex="A7CA"/>
  <outline>
    <contour>
      <point x="26" y="245" type="line"/>
      <point x="459" y="245" type="line"/>
      <point x="459" y="310" type="line"/>
      <point x="26" y="310" type="line"/>
    </contour>
    <component base="s"/>
  </outline>
</glyph>
<glyph name="uniAB44" format="2">
  <advance width="939"/>
  <unicode hex="AB44"/>
  <outline>
    <contour>
      <point x="515" y="-30" type="line"/>
      <point x="814" y="539" type="line"/>
      <point x="759" y="569" type="line"/>
      <point x="460" y="0" type="line"/>
    </contour>
    <component base="uniAB43"/>
  </outline>
</glyph>
<glyph name="uniAB65" format="2">
  <advance width="605"/>
  <unicode hex="AB65"/>
  <outline>
    <contour>
      <point x="302" y="473" type="curve" smooth="yes"/>
      <point x="411" y="473"/>
      <point x="459" y="400"/>
      <point x="459" y="294" type="curve" smooth="yes"/>
      <point x="459" y="179"/>
      <point x="403" y="98"/>
      <point x="339" y="69" type="curve"/>
      <point x="339" y="0" type="line"/>
      <point x="575" y="0" type="line"/>
      <point x="575" y="73" type="line"/>
      <point x="445" y="73" type="line"/>
      <point x="513" y="125"/>
      <point x="550" y="195"/>
      <point x="550" y="294" type="curve" smooth="yes"/>
      <point x="550" y="451"/>
      <point x="446" y="546"/>
      <point x="304" y="546" type="curve" smooth="yes"/>
      <point x="151" y="546"/>
      <point x="54" y="451"/>
      <point x="54" y="293" type="curve" smooth="yes"/>
      <point x="54" y="203"/>
      <point x="90" y="129"/>
      <point x="160" y="73" type="curve"/>
      <point x="30" y="73" type="line"/>
      <point x="30" y="0" type="line"/>
      <point x="266" y="0" type="line"/>
      <point x="266" y="69" type="line"/>
      <point x="203" y="96"/>
      <point x="145" y="191"/>
      <point x="145" y="293" type="curve" smooth="yes"/>
      <point x="145" y="400"/>
      <point x="194" y="473"/>
    </contour>
  </outline>
</glyph>
<glyph name="uniFE2C" format="2">
  <unicode hex="FE2C"/>
  <anchor x="0" y="0" name="_bottom"/>
  <outline>
    <contour>
      <point x="5" y="-189" type="line"/>
      <point x="-292" y="-189" type="line"/>
      <point x="-292" y="-254" type="line"/>
      <point x="5" y="-254" type="line"/>
    </contour>
  </outline>
</glyph>
<glyph name="uni03D0.alt" format="2">
  <advance width="631"/>
  <anchor x="316" y="-10" name="bottom"/>
  <anchor x="316" y="765" name="top"/>
  <outline>
    <contour>
      <point x="324" y="765" type="curve" smooth="yes"/>
      <point x="186" y="765"/>
      <point x="85" y="696"/>
      <point x="85" y="535" type="curve" smooth="yes"/>
      <point x="85" y="203" type="line"/>
      <point x="85" y="66"/>
      <point x="178" y="-10"/>
      <point x="335" y="-10" type="curve" smooth="yes"/>
      <point x="493" y="-10"/>
      <point x="586" y="66"/>
      <point x="586" y="203" type="curve" smooth="yes"/>
      <point x="586" y="324"/>
      <point x="523" y="388"/>
      <point x="402" y="402" type="curve"/>
      <point x="402" y="406" type="line"/>
      <point x="500" y="422"/>
      <point x="554" y="478"/>
      <point x="554" y="574" type="curve" smooth="yes"/>
      <point x="554" y="701"/>
      <point x="458" y="765"/>
    </contour>
    <contour>
      <point x="322" y="692" type="curve" smooth="yes"/>
      <point x="408" y="692"/>
      <point x="464" y="652"/>
      <point x="464" y="570" type="curve" smooth="yes"/>
      <point x="464" y="489"/>
      <point x="418" y="435"/>
      <point x="314" y="435" type="curve" smooth="yes"/>
      <point x="271" y="435" type="line"/>
      <point x="271" y="361" type="line"/>
      <point x="324" y="361" type="line" smooth="yes"/>
      <point x="428" y="361"/>
      <point x="498" y="314"/>
      <point x="498" y="209" type="curve" smooth="yes"/>
      <point x="498" y="115"/>
      <point x="447" y="62"/>
      <point x="337" y="62" type="curve" smooth="yes"/>
      <point x="224" y="62"/>
      <point x="173" y="115"/>
      <point x="173" y="209" type="curve" smooth="yes"/>
      <point x="173" y="531" type="line"/>
      <point x="173" y="656"/>
      <point x="242" y="692"/>
    </contour>
  </outline>
</glyph>
<glyph name="uni1FCD02C9" format="2">
  <advance width="400"/>
  <anchor x="199" y="536" name="_top"/>
  <anchor x="202" y="874" name="top"/>
  <outline>
    <contour>
      <point x="292" y="864" type="curve"/>
      <point x="196" y="864" type="line"/>
      <point x="196" y="854" type="line"/>
      <point x="217" y="812"/>
      <point x="257" y="753"/>
      <point x="295" y="706" type="curve"/>
      <point x="337" y="706" type="line"/>
      <point x="337" y="718" type="line"/>
      <point x="322" y="758"/>
      <point x="302" y="818"/>
    </contour>
    <contour>
      <point x="348" y="669" type="line"/>
      <point x="52" y="669" type="line"/>
      <point x="52" y="598" type="line"/>
      <point x="348" y="598" type="line"/>
    </contour>
    <contour>
      <point x="129" y="874" type="curve" smooth="yes"/>
      <point x="100" y="874"/>
      <point x="77" y="860"/>
      <point x="77" y="826" type="curve" smooth="yes"/>
      <point x="77" y="794"/>
      <point x="100" y="779"/>
      <point x="129" y="779" type="curve" smooth="yes"/>
      <point x="129" y="757"/>
      <point x="115" y="736"/>
      <point x="70" y="733" type="curve"/>
      <point x="70" y="696" type="line"/>
      <point x="148" y="704"/>
      <point x="180" y="744"/>
      <point x="180" y="815" type="curve" smooth="yes"/>
      <point x="180" y="849"/>
      <point x="161" y="874"/>
    </contour>
  </outline>
</glyph>
<glyph name="uni1FCD0306" format="2">
  <advance width="400"/>
  <anchor x="200" y="536" name="_top"/>
  <anchor x="202" y="904" name="top"/>
  <outline>
    <contour>
      <point x="197" y="591" type="curve" smooth="yes"/>
      <point x="288" y="591"/>
      <point x="343" y="638"/>
      <point x="354" y="711" type="curve"/>
      <point x="297" y="711" type="line"/>
      <point x="285" y="671"/>
      <point x="246" y="662"/>
      <point x="199" y="662" type="curve" smooth="yes"/>
      <point x="143" y="662"/>
      <point x="111" y="667"/>
      <point x="101" y="711" type="curve"/>
      <point x="46" y="711" type="line"/>
      <point x="56" y="637"/>
      <point x="104" y="591"/>
    </contour>
    <contour>
      <point x="70" y="763" type="curve"/>
      <point x="70" y="726" type="line"/>
      <point x="148" y="734"/>
      <point x="180" y="774"/>
      <point x="180" y="845" type="curve" smooth="yes"/>
      <point x="180" y="879"/>
      <point x="161" y="904"/>
      <point x="129" y="904" type="curve" smooth="yes"/>
      <point x="100" y="904"/>
      <point x="77" y="890"/>
      <point x="77" y="856" type="curve" smooth="yes"/>
      <point x="77" y="824"/>
      <point x="100" y="809"/>
      <point x="129" y="809" type="curve"/>
      <point x="129" y="787"/>
      <point x="115" y="766"/>
    </contour>
    <contour>
      <point x="295" y="736" type="curve"/>
      <point x="337" y="736" type="line"/>
      <point x="337" y="748" type="line"/>
      <point x="322" y="788"/>
      <point x="302" y="848"/>
      <point x="292" y="894" type="curve"/>
      <point x="196" y="894" type="line"/>
      <point x="196" y="884" type="line"/>
      <point x="217" y="842"/>
      <point x="257" y="783"/>
    </contour>
  </outline>
</glyph>
<glyph name="uni1FCE02C9" format="2">
  <advance width="400"/>
  <anchor x="199" y="536" name="_top"/>
  <anchor x="204" y="874" name="top"/>
  <outline>
    <contour>
      <point x="210" y="718" type="curve"/>
      <point x="210" y="706" type="line"/>
      <point x="252" y="706" type="line"/>
      <point x="290" y="753"/>
      <point x="330" y="812"/>
      <point x="351" y="854" type="curve"/>
      <point x="351" y="864" type="line"/>
      <point x="255" y="864" type="line"/>
      <point x="245" y="818"/>
      <point x="225" y="758"/>
    </contour>
    <contour>
      <point x="52" y="598" type="line"/>
      <point x="348" y="598" type="line"/>
      <point x="348" y="669" type="line"/>
      <point x="52" y="669" type="line"/>
    </contour>
    <contour>
      <point x="79" y="733" type="curve"/>
      <point x="79" y="696" type="line"/>
      <point x="157" y="704"/>
      <point x="189" y="744"/>
      <point x="189" y="815" type="curve" smooth="yes"/>
      <point x="189" y="849"/>
      <point x="170" y="874"/>
      <point x="138" y="874" type="curve" smooth="yes"/>
      <point x="109" y="874"/>
      <point x="86" y="860"/>
      <point x="86" y="826" type="curve" smooth="yes"/>
      <point x="86" y="794"/>
      <point x="109" y="779"/>
      <point x="138" y="779" type="curve" smooth="yes"/>
      <point x="138" y="757"/>
      <point x="124" y="736"/>
    </contour>
  </outline>
</glyph>
<glyph name="uni1FDD0306" format="2">
  <advance width="400"/>
  <anchor x="200" y="536" name="_top"/>
  <anchor x="202" y="904" name="top"/>
  <outline>
    <contour>
      <point x="197" y="591" type="curve" smooth="yes"/>
      <point x="288" y="591"/>
      <point x="343" y="638"/>
      <point x="354" y="711" type="curve"/>
      <point x="297" y="711" type="line"/>
      <point x="285" y="671"/>
      <point x="246" y="662"/>
      <point x="199" y="662" type="curve" smooth="yes"/>
      <point x="143" y="662"/>
      <point x="111" y="667"/>
      <point x="101" y="711" type="curve"/>
      <point x="46" y="711" type="line"/>
      <point x="56" y="637"/>
      <point x="104" y="591"/>
    </contour>
    <contour>
      <point x="178" y="726" type="curve"/>
      <point x="178" y="763" type="line"/>
      <point x="133" y="766"/>
      <point x="119" y="787"/>
      <point x="119" y="809" type="curve"/>
      <point x="148" y="809"/>
      <point x="171" y="824"/>
      <point x="171" y="856" type="curve" smooth="yes"/>
      <point x="171" y="890"/>
      <point x="148" y="904"/>
      <point x="119" y="904" type="curve" smooth="yes"/>
      <point x="87" y="904"/>
      <point x="68" y="879"/>
      <point x="68" y="845" type="curve" smooth="yes"/>
      <point x="68" y="774"/>
      <point x="100" y="734"/>
    </contour>
    <contour>
      <point x="288" y="736" type="curve"/>
      <point x="330" y="736" type="line"/>
      <point x="330" y="748" type="line"/>
      <point x="315" y="788"/>
      <point x="295" y="848"/>
      <point x="285" y="894" type="curve"/>
      <point x="189" y="894" type="line"/>
      <point x="189" y="884" type="line"/>
      <point x="210" y="842"/>
      <point x="250" y="783"/>
    </contour>
  </outline>
</glyph>
<glyph name="uni1FDE02C9" format="2">
  <advance width="400"/>
  <anchor x="199" y="536" name="_top"/>
  <anchor x="203" y="874" name="top"/>
  <outline>
    <contour>
      <point x="209" y="718" type="curve"/>
      <point x="209" y="706" type="line"/>
      <point x="251" y="706" type="line"/>
      <point x="289" y="753"/>
      <point x="329" y="812"/>
      <point x="350" y="854" type="curve"/>
      <point x="350" y="864" type="line"/>
      <point x="254" y="864" type="line"/>
      <point x="244" y="818"/>
      <point x="224" y="758"/>
    </contour>
    <contour>
      <point x="52" y="598" type="line"/>
      <point x="348" y="598" type="line"/>
      <point x="348" y="669" type="line"/>
      <point x="52" y="669" type="line"/>
    </contour>
    <contour>
      <point x="188" y="696" type="curve"/>
      <point x="188" y="733" type="line"/>
      <point x="143" y="736"/>
      <point x="129" y="757"/>
      <point x="129" y="779" type="curve" smooth="yes"/>
      <point x="158" y="779"/>
      <point x="181" y="794"/>
      <point x="181" y="826" type="curve" smooth="yes"/>
      <point x="181" y="860"/>
      <point x="158" y="874"/>
      <point x="129" y="874" type="curve" smooth="yes"/>
      <point x="97" y="874"/>
      <point x="78" y="849"/>
      <point x="78" y="815" type="curve" smooth="yes"/>
      <point x="78" y="744"/>
      <point x="110" y="704"/>
    </contour>
  </outline>
</glyph>
<glyph name="uni1FDE0306" format="2">
  <advance width="400"/>
  <anchor x="200" y="536" name="_top"/>
  <anchor x="202" y="904" name="top"/>
  <outline>
    <contour>
      <point x="197" y="591" type="curve" smooth="yes"/>
      <point x="288" y="591"/>
      <point x="343" y="638"/>
      <point x="354" y="711" type="curve"/>
      <point x="297" y="711" type="line"/>
      <point x="285" y="671"/>
      <point x="246" y="662"/>
      <point x="199" y="662" type="curve" smooth="yes"/>
      <point x="143" y="662"/>
      <point x="111" y="667"/>
      <point x="101" y="711" type="curve"/>
      <point x="46" y="711" type="line"/>
      <point x="56" y="637"/>
      <point x="104" y="591"/>
    </contour>
    <contour>
      <point x="188" y="726" type="curve"/>
      <point x="188" y="763" type="line"/>
      <point x="143" y="766"/>
      <point x="129" y="787"/>
      <point x="129" y="809" type="curve"/>
      <point x="158" y="809"/>
      <point x="181" y="824"/>
      <point x="181" y="856" type="curve" smooth="yes"/>
      <point x="181" y="890"/>
      <point x="158" y="904"/>
      <point x="129" y="904" type="curve" smooth="yes"/>
      <point x="97" y="904"/>
      <point x="78" y="879"/>
      <point x="78" y="845" type="curve" smooth="yes"/>
      <point x="78" y="774"/>
      <point x="110" y="734"/>
    </contour>
    <contour>
      <point x="209" y="748" type="curve"/>
      <point x="209" y="736" type="line"/>
      <point x="251" y="736" type="line"/>
      <point x="289" y="783"/>
      <point x="329" y="842"/>
      <point x="350" y="884" type="curve"/>
      <point x="350" y="894" type="line"/>
      <point x="254" y="894" type="line"/>
      <point x="244" y="848"/>
      <point x="224" y="788"/>
    </contour>
  </outline>
</glyph>
